<svg preserveAspectRatio="none" width="100%" height="100%" overflow="visible" style="display: block;" viewBox="0 0 121.212 24" fill="none" xmlns="http://www.w3.org/2000/svg">
<g id="GoldOller Logo [Gold] 1" clip-path="url(#clip0_0_55)">
<path id="Vector" d="M3.64804 11.7277C3.64804 13.2773 3.89941 14.6832 4.40219 15.9455C4.91521 17.1975 5.6437 18.2698 6.58767 19.1626C7.53165 20.0555 8.68081 20.743 10.0352 21.2254C11.3998 21.7077 12.9287 21.9488 14.6217 21.9488H17.9922V9.82895H21.3628V23.4574H13.2365C12.0155 23.4574 10.8406 23.3496 9.71199 23.1341C8.58333 22.9186 7.52651 22.5954 6.54149 22.1643C5.5565 21.7333 4.66382 21.1946 3.8635 20.5481C3.06319 19.9015 2.37573 19.1421 1.80114 18.2698C1.22656 17.3976 0.780223 16.4175 0.462148 15.3297C0.154332 14.2419 0.000423976 13.0413 0.000423976 11.7277C0.000423976 10.6297 0.144071 9.57778 0.431365 8.5721C0.728921 7.56641 1.13934 6.63254 1.66263 5.77053C2.19617 4.90849 2.83233 4.12856 3.57109 3.43075C4.32011 2.7329 5.14607 2.13771 6.04901 1.64512C6.96217 1.14227 7.94205 0.757443 8.98864 0.490626C10.0352 0.22381 11.1279 0.0904018 12.2669 0.0904018C14.0419 0.0904018 15.6939 0.382874 17.2227 0.967817C18.7515 1.55276 20.1059 2.35321 21.2859 3.36917L20.424 4.50827C19.952 4.10805 19.4287 3.73348 18.8541 3.38456C18.2898 3.03564 17.6844 2.7329 17.038 2.47637C16.4019 2.2198 15.74 2.01969 15.0526 1.87602C14.3651 1.73235 13.6725 1.66051 12.9748 1.66051C11.5281 1.67078 10.2301 1.93246 9.08098 2.44558C7.93179 2.94842 6.95192 3.65138 6.14135 4.55445C5.34103 5.44725 4.72539 6.50427 4.29444 7.72546C3.8635 8.94665 3.64804 10.2807 3.64804 11.7277Z" fill="var(--fill-0, white)"/>
<path id="Vector_2" d="M30.4294 8.66518C31.4861 8.66518 32.4762 8.8653 33.3998 9.26552C34.3232 9.65548 35.1234 10.1942 35.8008 10.8818C36.4881 11.5591 37.0267 12.3596 37.4168 13.2832C37.8066 14.1965 38.0015 15.1714 38.0015 16.2079C38.0015 17.2546 37.8066 18.2398 37.4168 19.1634C37.0267 20.0767 36.4881 20.8772 35.8008 21.5647C35.1234 22.2421 34.3232 22.7808 33.3998 23.181C32.4762 23.571 31.4861 23.766 30.4294 23.766C29.393 23.766 28.4182 23.571 27.505 23.181C26.6022 22.7808 25.8122 22.2421 25.1348 21.5647C24.4578 20.8772 23.919 20.0767 23.5189 19.1634C23.129 18.2398 22.934 17.2546 22.934 16.2079C22.934 15.1714 23.129 14.1965 23.5189 13.2832C23.919 12.3596 24.4578 11.5591 25.1348 10.8818C25.8122 10.1942 26.6022 9.65548 27.505 9.26552C28.4182 8.8653 29.393 8.66518 30.4294 8.66518ZM30.3986 10.066C29.5981 10.066 28.921 10.2199 28.3668 10.5278C27.8231 10.8356 27.3819 11.2667 27.0434 11.8208C26.7048 12.375 26.4585 13.0317 26.3045 13.7911C26.161 14.5505 26.089 15.3766 26.089 16.2695C26.089 17.152 26.1661 17.9678 26.3201 18.717C26.474 19.4661 26.7201 20.1178 27.0587 20.6719C27.3974 21.2158 27.8386 21.6417 28.3824 21.9496C28.9363 22.2574 29.6085 22.4114 30.3986 22.4114C31.1887 22.4114 31.8607 22.2574 32.4146 21.9496C32.9688 21.6417 33.4202 21.2158 33.769 20.6719C34.1283 20.1178 34.3848 19.4661 34.5387 18.717C34.7028 17.9678 34.7848 17.152 34.7848 16.2695C34.7848 15.3766 34.7028 14.5505 34.5387 13.7911C34.3848 13.0317 34.1283 12.375 33.769 11.8208C33.4202 11.2667 32.9688 10.8356 32.4146 10.5278C31.8607 10.2199 31.1887 10.066 30.3986 10.066Z" fill="var(--fill-0, white)"/>
<path id="Vector_3" d="M39.8802 0.569196H43.0045V23.459H39.8802V0.569196Z" fill="var(--fill-0, white)"/>
<path id="Vector_4" d="M54.1798 23.459C52.9589 23.459 51.8814 23.3615 50.9478 23.1665C50.0244 22.9715 49.2188 22.6996 48.5313 22.3507C47.8542 21.9915 47.2848 21.5707 46.8229 21.0884C46.3715 20.6061 46.0074 20.0776 45.7303 19.5029C45.4532 18.918 45.2583 18.3022 45.1454 17.6557C45.0326 17.0092 44.9762 16.3473 44.9762 15.67C44.9762 14.6643 45.125 13.7356 45.4225 12.8838C45.7303 12.0218 46.1919 11.2829 46.8077 10.6672C47.4336 10.0412 48.2186 9.55373 49.1623 9.20481C50.1168 8.84563 51.2452 8.66605 52.5485 8.66605C53.0615 8.66605 53.6411 8.75329 54.2877 8.92774C54.9442 9.10219 55.5701 9.36389 56.1652 9.71278V0.569196H59.2896V23.459H54.1798ZM48.1005 15.6392C48.1005 15.9881 48.1209 16.3935 48.1621 16.8553C48.2132 17.3068 48.3107 17.7789 48.4545 18.2714C48.5982 18.7538 48.8033 19.231 49.0702 19.703C49.3471 20.1648 49.7063 20.5856 50.1475 20.9653C50.5989 21.3347 51.1529 21.6323 51.8096 21.8581C52.4765 22.0838 53.2666 22.1967 54.1798 22.1967H56.1652V10.8519C55.6726 10.5543 55.1597 10.3337 54.6261 10.19C54.0925 10.0361 53.5027 9.95909 52.8562 9.95909C52.0969 9.95909 51.4198 10.1181 50.8246 10.4363C50.2399 10.7442 49.7422 11.1598 49.3318 11.6831C48.9315 12.2065 48.6237 12.812 48.4084 13.4995C48.2031 14.1768 48.1005 14.8901 48.1005 15.6392Z" fill="var(--fill-0, white)"/>
<path id="Vector_5" d="M73.1581 23.9057C72.0294 23.9057 70.9416 23.7621 69.8951 23.4747C68.8589 23.1874 67.8842 22.7871 66.971 22.2741C66.0679 21.7507 65.242 21.1247 64.4929 20.3961C63.7542 19.6675 63.1181 18.8619 62.5845 17.9793C62.0509 17.0865 61.6354 16.1321 61.338 15.1162C61.0507 14.09 60.907 13.0227 60.907 11.9144C60.907 10.8266 61.0507 9.77471 61.338 8.75876C61.6354 7.74281 62.0509 6.79355 62.5845 5.91101C63.1181 5.02846 63.7542 4.22288 64.4929 3.49428C65.242 2.76565 66.0679 2.14479 66.971 1.63169C67.8842 1.11858 68.8589 0.718351 69.8951 0.431011C70.9416 0.143671 72.0294 0 73.1581 0C74.2764 0 75.3537 0.143671 76.3901 0.431011C77.4265 0.70809 78.3959 1.10831 79.299 1.63169C80.2017 2.14479 81.0226 2.76565 81.7615 3.49428C82.5103 4.22288 83.1467 5.02846 83.6699 5.91101C84.2034 6.79355 84.6139 7.74281 84.9011 8.75876C85.1988 9.77471 85.3474 10.8266 85.3474 11.9144C85.3474 13.0227 85.1988 14.09 84.9011 15.1162C84.6139 16.1321 84.2034 17.0865 83.6699 17.9793C83.1467 18.8619 82.5103 19.6675 81.7615 20.3961C81.0226 21.1247 80.2017 21.7507 79.299 22.2741C78.3959 22.7871 77.4265 23.1874 76.3901 23.4747C75.3537 23.7621 74.2764 23.9057 73.1581 23.9057ZM73.1581 22.4126C74.5535 22.4126 75.7848 22.1407 76.8517 21.5967C77.9293 21.0528 78.832 20.3088 79.5605 19.3647C80.289 18.4206 80.8381 17.3123 81.2073 16.0398C81.5869 14.757 81.7768 13.3819 81.7768 11.9144C81.7768 10.4572 81.592 9.09229 81.2228 7.81978C80.8534 6.54727 80.3045 5.44407 79.576 4.51023C78.8577 3.57636 77.9598 2.84262 76.8825 2.30899C75.8051 1.76509 74.5637 1.49315 73.1581 1.49315C71.7317 1.49315 70.48 1.76509 69.4027 2.30899C68.3356 2.84262 67.4379 3.57636 66.7094 4.51023C65.9911 5.44407 65.4473 6.54727 65.0779 7.81978C64.7188 9.09229 64.5392 10.4572 64.5392 11.9144C64.5392 13.3819 64.7239 14.757 65.0931 16.0398C65.4626 17.3123 66.0063 18.4206 66.7246 19.3647C67.4531 20.3088 68.3562 21.0528 69.4335 21.5967C70.5108 22.1407 71.7523 22.4126 73.1581 22.4126Z" fill="var(--fill-0, white)"/>
<path id="Vector_6" d="M86.9485 0.569196H90.0729V23.459H86.9485V0.569196Z" fill="var(--fill-0, white)"/>
<path id="Vector_7" d="M92.9519 0.569196H96.0762V23.459H92.9519V0.569196Z" fill="var(--fill-0, white)"/>
<path id="Vector_8" d="M104.881 8.66518C105.928 8.66518 106.81 8.86016 107.529 9.25012C108.257 9.62983 108.847 10.1481 109.299 10.8048C109.76 11.4616 110.089 12.221 110.283 13.083C110.489 13.9348 110.591 14.8379 110.591 15.7923V16.5157H101.111C101.111 17.0904 101.203 17.7113 101.388 18.3783C101.572 19.0454 101.87 19.6611 102.28 20.2255C102.701 20.79 103.24 21.262 103.896 21.6417C104.563 22.0111 105.379 22.1959 106.344 22.1959H109.545V23.4581H106.297C104.861 23.4581 103.619 23.2939 102.573 22.9655C101.537 22.6371 100.68 22.1599 100.003 21.534C99.3356 20.908 98.843 20.1434 98.525 19.2404C98.2069 18.3373 98.0479 17.3059 98.0479 16.1463C98.0479 15.1817 98.1967 14.2478 98.4942 13.3447C98.802 12.4417 99.2433 11.6463 99.8178 10.9588C100.403 10.261 101.116 9.7068 101.957 9.2963C102.809 8.87555 103.784 8.66518 104.881 8.66518ZM104.727 10.066C104.091 10.066 103.547 10.2096 103.096 10.497C102.645 10.7843 102.27 11.1692 101.972 11.6515C101.685 12.1235 101.47 12.6777 101.326 13.314C101.193 13.9399 101.121 14.5916 101.111 15.2689H107.621V14.607C107.6 14.0118 107.544 13.4422 107.452 12.8983C107.37 12.3544 107.221 11.8721 107.005 11.4514C106.79 11.0306 106.497 10.6971 106.128 10.4508C105.769 10.1942 105.302 10.066 104.727 10.066Z" fill="var(--fill-0, white)"/>
<path id="Vector_9" d="M115.502 10.0968C115.913 9.80942 116.272 9.5734 116.58 9.38867C116.898 9.20394 117.18 9.06028 117.426 8.95766C117.673 8.84477 117.898 8.7678 118.104 8.72675C118.319 8.68571 118.529 8.66518 118.735 8.66518C119.535 8.66518 120.13 8.94227 120.52 9.49643C120.91 10.0506 121.141 10.8356 121.212 11.8516L118.519 12.652C118.417 11.9132 118.278 11.3898 118.104 11.0819C117.929 10.7741 117.657 10.6201 117.288 10.6201C117.072 10.6201 116.816 10.6663 116.518 10.7587C116.231 10.851 115.892 11.005 115.502 11.2205V23.4581H112.378V8.95766H115.502V10.0968Z" fill="var(--fill-0, white)"/>
</g>
<defs>
<clipPath id="clip0_0_55">
<rect width="121.212" height="24" fill="white"/>
</clipPath>
</defs>
</svg>
