<svg preserveAspectRatio="none" width="100%" height="100%" overflow="visible" style="display: block;" viewBox="0 0 117.709 22" fill="none" xmlns="http://www.w3.org/2000/svg">
<path id="Vector" d="M0 11.4151C0 4.34904 4.24482 0 11.0784 0C12.787 0 14.3905 0.284176 16.3584 0.905977V5.82337H15.6341C14.5722 2.64043 12.8903 1.24182 10.0691 1.24182C5.69509 1.24182 3.23639 4.58066 3.23639 10.5599C3.23639 17.1343 5.82515 20.7582 10.5875 20.7582C12.8128 20.7582 14.0564 19.9814 14.0564 18.5837V13.7161C14.0564 12.371 13.8498 12.0343 12.7879 11.7234L11.131 11.2316V10.6615H18.7155V11.2316L17.9645 11.5684C16.8777 12.0601 16.8002 12.2151 16.8002 13.5611V20.7306C14.6266 21.5849 12.608 21.9991 10.4593 21.9991C3.85909 22 0.00267252 18.0901 0.00267252 11.4133L0 11.4151ZM47.7192 16.6167L47.9001 16.6684L47.5633 21.6633H32.0334C31.18 21.6633 30.7916 21.4566 30.3248 20.6789L25.9508 13.4836C24.864 13.4836 24.3972 13.4836 24.0863 13.432V18.6344C24.0863 20.3181 24.138 20.4214 25.0181 20.7573L26.0533 21.1448V21.6633H19.5048V21.1448L20.6442 20.7306C21.3951 20.4455 21.4726 20.2388 21.4726 18.6335V8.12528C21.4726 6.33827 21.3951 6.10577 20.6442 5.84742L19.5039 5.45991V4.94145H27.2951C30.6856 4.94145 32.3942 6.20999 32.3942 8.77203C32.3942 10.9724 31.1266 12.3968 28.5637 13.0427L32.29 18.6335C33.5586 20.5488 34.1278 21.0655 34.9304 21.0655C35.2155 21.0655 35.6039 20.9622 35.8622 20.8072C36.5874 20.4455 36.7157 20.0562 36.7157 18.3993V8.2019C36.7157 6.46744 36.5874 6.10488 35.8872 5.84653L34.7478 5.4323V4.94056H46.9389V8.87536H46.3179L45.722 7.78855C44.8427 6.25988 44.2726 6.00154 41.8139 6.00154C39.6919 6.00154 39.3285 6.18327 39.3285 7.27008V12.1875H40.4928C42.4081 12.1875 42.9007 11.9808 43.5991 10.8682L43.9608 10.3247H44.4534V15.3971H43.9608L43.5991 14.6987C43.0557 13.5852 42.3823 13.2752 40.4928 13.2752H39.3294V18.6335C39.3294 20.2647 39.7944 20.5756 42.3056 20.5756C44.4802 20.5756 45.1795 20.3163 45.8779 19.2812C46.1104 18.9444 46.3696 18.5044 46.4988 18.1944L47.1972 16.8225L47.3789 16.6158H47.7192M29.5489 9.34216C29.5489 7.03847 28.4086 6.00332 25.95 6.00332C24.2413 6.00332 24.0863 6.13249 24.0863 7.78944V12.4227C24.9406 12.5011 25.4065 12.5269 25.7958 12.5269C28.487 12.5269 29.5489 11.62 29.5489 9.34216ZM82.6621 18.687V5.97749H83.5423C85.4308 5.97749 86.001 6.2875 86.7261 7.65938L87.5795 9.18716H88.2004V4.94145H74.4816V9.18716H75.1034L75.9568 7.65938C76.682 6.2875 77.2512 5.97749 79.1407 5.97749H80.0466V18.687C80.0466 20.2406 79.9691 20.4214 79.0382 20.7315L77.7438 21.1457V21.6642H84.9391V21.1457L83.6447 20.7315C82.7387 20.4214 82.6621 20.2655 82.6621 18.687ZM117.709 21.1457V21.6633H114.991C114.163 21.6633 113.801 21.4566 113.309 20.6798L108.935 13.4836C107.848 13.4836 107.381 13.4836 107.071 13.432V18.6344C107.071 20.3181 107.122 20.4214 108.002 20.7573L109.038 21.1448V21.6633H96.0175V21.1448L97.2085 20.7573C97.9595 20.4722 98.062 20.2139 97.7261 19.307L96.4585 15.9174H90.8159L89.8066 18.5311C89.2632 19.8255 89.3674 20.3172 90.2725 20.6798L91.4627 21.1448V21.6633H85.9493V21.1448L86.6228 20.8081C87.2962 20.4464 87.6846 19.8771 88.3323 18.2719L93.8964 4.76061H94.8541L100.317 18.401C101.145 20.523 101.636 21.0415 102.749 21.0147C103.06 20.988 103.5 20.8597 103.733 20.7047C104.354 20.3163 104.458 20.0313 104.458 18.6335V8.12618C104.458 6.34006 104.38 6.13338 103.604 5.84921L102.491 5.4608V4.94234H110.282C113.672 4.94234 115.381 6.21089 115.381 8.77292C115.381 10.9733 114.112 12.3977 111.55 13.0436L115.276 18.6344C116.235 20.058 116.856 20.7047 117.709 21.1457ZM96.0451 14.8306L93.6639 8.56803L91.231 14.8306H96.0451ZM112.559 9.34305C112.559 7.06608 111.42 6.00421 108.935 6.00421C107.226 6.00421 107.071 6.13338 107.071 7.79033V12.4236C108.029 12.5019 108.416 12.5278 108.78 12.5278C111.497 12.5278 112.559 11.6218 112.559 9.34394V9.34305ZM62.9908 4.94412H57.6591V5.46169L58.7201 5.90177C59.4969 6.21178 59.5744 6.65274 59.0827 7.58366L56.1581 13.2529L52.9475 7.27365C52.56 6.49773 52.6375 6.16011 53.3101 5.90177L54.4236 5.46169V4.94412H47.8742V5.46169L48.4176 5.72093C49.1936 6.05766 49.6853 6.67857 50.4104 7.99879L54.086 14.6765V18.4803C54.086 20.2673 54.0085 20.4473 53.18 20.7332L51.9373 21.1475V21.665H58.8235V21.1475L57.5816 20.7332C56.8048 20.4482 56.7015 20.1898 56.7015 18.4803V14.623L60.247 8.12618C61.1539 6.41756 61.4648 6.08171 62.5516 5.64075L62.9908 5.45991V4.94145V4.94412ZM70.6012 12.4752L67.4173 11.1033C65.9163 10.4824 65.2437 9.65395 65.2437 8.43708C65.2437 6.80596 66.3822 5.82248 68.2716 5.82248C70.1611 5.82248 71.4546 6.88435 72.2572 9.18805H72.9307V5.40824C71.8439 4.9165 70.2395 4.60649 68.7384 4.60649C65.2178 4.60649 62.9658 6.49506 62.9658 9.47222C62.9658 11.4142 63.9751 12.6819 66.2004 13.6395L69.125 14.8814C70.8078 15.6323 71.5062 16.5125 71.5062 17.9102C71.5062 19.7738 70.3669 20.7831 68.2966 20.7831C65.967 20.7831 64.4393 19.4638 63.3792 16.5641H62.7057L62.7832 20.809C64.1284 21.5858 65.9154 22 67.7781 22C71.4537 22 73.7841 20.058 73.7841 16.9525C73.7841 14.8555 72.7481 13.3803 70.6003 12.4743L70.6012 12.4752Z" fill="var(--fill-0, black)"/>
</svg>
