<svg preserveAspectRatio="none" width="100%" height="100%" overflow="visible" style="display: block;" viewBox="0 0 43.7213 32" fill="none" xmlns="http://www.w3.org/2000/svg">
<path id="RPM" d="M43.629 25.4312V15.082H39.9961L37.7796 18.4502L35.5626 15.082H31.9297V25.4308H35.5196V20.5461L37.499 23.3788L37.738 23.7534L37.9976 23.3788L39.9918 20.5201V25.4321L43.629 25.4312ZM43.7203 4.27925V4.24473C43.7203 1.57205 41.6195 0.00270785 38.3604 0.00270785H31.9335V12.0728H35.5062V8.62211H38.1763C41.379 8.62211 43.7213 7.12223 43.7213 4.27523M40.1486 4.43026C40.1486 5.37851 39.3747 5.99873 38.1037 5.99873H35.5067V2.80982H38.0841C39.3747 2.80982 40.1481 3.36102 40.1481 4.39486L40.1486 4.43026ZM29.5396 31.9978L21.1897 20.5703C25.5353 19.061 28.5148 15.8156 28.5148 10.6504V10.5608C28.5148 3.97767 23.6807 0 15.6243 0H0V31.9995H7.51959V21.7597H13.4264L20.75 32L29.5396 31.9978ZM20.8982 11.0147C20.8982 13.7121 18.7983 15.5409 15.1367 15.5409H7.51959V6.35411H14.9904C18.6525 6.35411 20.8986 7.9087 20.8986 10.9251L20.8982 11.0147ZM43.63 28.4768H31.9235V31.9978H43.63V28.4768Z" fill="var(--fill-0, black)"/>
</svg>
